<?xml version="1.0" encoding="UTF-8"?>
<svg id="Layer_2" data-name="Layer 2" xmlns="http://www.w3.org/2000/svg" viewBox="0 0 184.93 152.59">
  <defs>
    <style>
      .cls-1 {
        fill: #ff5850;
      }

      .cls-2 {
        fill: #ed482e;
      }

      .cls-3 {
        fill: #ffb229;
      }

      .cls-4 {
        fill: #ffce55;
      }

      .cls-5 {
        fill: #fdf2dc;
      }

      .cls-6 {
        fill: #6562e8;
      }

      .cls-7 {
        fill: #bc422e;
      }

      .cls-8 {
        fill: #dbcdb0;
      }

      .cls-9 {
        fill: #155951;
      }

      .cls-10 {
        fill: #239b8c;
      }

      .cls-11 {
        fill: #1e7068;
      }

      .cls-12 {
        fill: #4646d3;
      }

      .cls-13 {
        fill: #2c2cc6;
      }

      .cls-14 {
        fill: #cabd9a;
        opacity: .55;
      }

      .cls-15 {
        fill: #b2a383;
        opacity: .49;
      }
    </style>
  </defs>
  <g id="Layer_1-2" data-name="Layer 1">
    <g>
      <g>
        <g>
          <path class="cls-6" d="M182.56,72.98l-75.22,75.22c-5.85,5.85-15.33,5.85-21.18,0l-20.35-20.35c-6.46-6.46-6.46-16.94,0-23.41L139.91,30.34c3.16-3.16,8.29-3.16,11.45,0l17.61,17.61-1.22,1.36s1.29,4.54,4.99,8.05c4.52,4.28,7.67,4.71,7.67,4.71l1.46-1.22,.69,.69c3.16,3.16,3.16,8.29,0,11.45Z"/>
          <path class="cls-12" d="M78.79,124.16l-15.85-15.85c-3.38,6.27-2.43,14.25,2.87,19.55l16.29,16.29,4.06,4.06c5.85,5.85,15.33,5.85,21.18,0l75.22-75.22c3.16-3.16,3.16-8.29,0-11.45l-.77-.75-1.31,1.38s-3.51-.61-7.79-4.94c-4.1-4.14-4.94-7.95-4.94-7.95l1.27-1.22-2.84-2.88L87.19,124.15c-2.32,2.32-6.08,2.32-8.4,0Z"/>
          <path class="cls-5" d="M90.52,126.32c-3.54,3.54-3.54,9.28,0,12.82h0c3.54,3.54,9.28,3.54,12.82,0L180.47,62.17s-3.78-.86-7.83-4.91c-3.86-3.86-4.99-7.91-4.99-7.91L90.52,126.32Z"/>
          <path class="cls-13" d="M107.34,148.2l75.22-75.22c1.14-1.14,1.86-2.54,2.18-4l-80.01,79.54c-6.96,5.84-18.58-.32-18.58-.32,5.85,5.85,15.33,5.85,21.18,0Z"/>
          <polygon class="cls-8" points="92.79 140.79 92.79 140.79 92.79 140.79 92.79 140.79"/>
          <path class="cls-8" d="M91.7,140.12c-.07-.05-.13-.1-.2-.15,.07,.05,.13,.1,.2,.15Z"/>
          <path class="cls-5" d="M92.79,140.79c-.37-.19-.74-.42-1.09-.67,.35,.25,.71,.47,1.09,.67Z"/>
          <path class="cls-5" d="M91.51,139.98c-.34-.26-.67-.53-.99-.84,.31,.31,.64,.58,.99,.84Z"/>
          <path class="cls-14" d="M172.72,57.26c-3.86-3.86-4.94-8.02-4.94-8.02L90.52,126.32c-3.54,3.54-3.54,9.28,0,12.82h0c.31,.31,.64,.59,.99,.84,.07,.05,.13,.1,.2,.15,.35,.25,.71,.47,1.09,.67,0,0,0,0,0,0L174.59,58.99c-.63-.5-1.21-1.07-1.87-1.73Z"/>
          <path class="cls-15" d="M90.64,129.86c.1,.1,.23,.15,.35,.15s.26-.05,.35-.15L168.92,52.28c-.18-.33-.34-.65-.48-.94l-77.81,77.81c-.2,.2-.2,.51,0,.71Z"/>
          <path class="cls-15" d="M89.74,134.28c.1,.1,.23,.15,.35,.15s.26-.05,.35-.15L170.3,54.48c-.2-.29-.39-.57-.57-.84l-79.98,79.94c-.2,.19-.2,.51,0,.71Z"/>
          <path class="cls-15" d="M94.31,133.53c.1,.1,.23,.15,.35,.15s.26-.05,.35-.15L171.98,56.56c-.23-.25-.45-.5-.66-.75l-77.01,77.01c-.2,.2-.2,.51,0,.71Z"/>
          <path class="cls-15" d="M93.27,138.23c.1,.1,.23,.15,.35,.15s.26-.05,.35-.15L173.8,58.33c-.24-.21-.49-.44-.74-.67l-79.79,79.87c-.19,.2-.19,.51,0,.71Z"/>
          <path class="cls-15" d="M98.31,137.53c.1,.1,.22,.14,.35,.14s.26-.05,.36-.15L176.04,60.05c-.27-.18-.55-.37-.83-.58l-76.9,77.36c-.19,.2-.19,.51,0,.71Z"/>
          <path class="cls-15" d="M100.05,138.56c-.2,.2-.2,.51,0,.71,.1,.1,.23,.15,.35,.15s.26-.05,.35-.15L178.56,61.46c-.29-.13-.61-.29-.94-.47l-77.57,77.57Z"/>
        </g>
        <g>
          <path class="cls-4" d="M110.4,118.08s-2.91,2.91-5.73,5.75c-2.69,2.72-5.3,5.38-5.2,5.38l19.17,19.17,.87-9.71,.02-.27,10.03-1.15-19.17-19.17Z"/>
          <path class="cls-3" d="M99.46,129.21l19.17,19.17,.87-9.71-14.84-14.84c-2.69,2.72-5.3,5.38-5.2,5.38Z"/>
        </g>
      </g>
      <g>
        <path class="cls-10" d="M124.93,80.59l-42.98,42.98c-5.85,5.85-15.33,5.85-21.18,0l-20.35-20.35c-6.46-6.46-6.46-16.94,0-23.41l41.87-41.87c3.16-3.16,8.29-3.16,11.45,0l17.61,17.61-1.22,1.36s1.29,4.54,4.99,8.05c4.52,4.28,7.67,4.71,7.67,4.71l1.46-1.22,.69,.69c3.16,3.16,3.16,8.29,0,11.45Z"/>
        <path class="cls-11" d="M53.41,99.53l-15.85-15.85c-3.38,6.27-2.43,14.25,2.87,19.55l16.29,16.29,4.06,4.06c5.85,5.85,15.33,5.85,21.18,0l42.98-42.98c3.16-3.16,3.16-8.29,0-11.45l-.77-.75-1.31,1.38s-3.51-.61-7.79-4.94c-4.1-4.14-4.94-7.95-4.94-7.95l1.27-1.22-2.84-2.88-46.75,46.75c-2.32,2.32-6.08,2.32-8.4,0Z"/>
        <path class="cls-5" d="M65.14,101.69c-3.54,3.54-3.54,9.28,0,12.82h0c3.54,3.54,9.28,3.54,12.82,0l44.89-44.72s-3.78-.86-7.83-4.91c-3.86-3.86-4.99-7.91-4.99-7.91l-44.89,44.72Z"/>
        <path class="cls-9" d="M81.96,123.57l42.98-42.98c1.14-1.14,1.86-2.54,2.18-4l-47.76,47.3c-6.96,5.84-18.58-.32-18.58-.32,5.85,5.85,15.33,5.85,21.18,0Z"/>
        <polygon class="cls-8" points="67.41 116.16 67.41 116.16 67.41 116.16 67.41 116.16"/>
        <path class="cls-8" d="M66.32,115.49c-.07-.05-.13-.1-.2-.14,.07,.05,.13,.1,.2,.14Z"/>
        <path class="cls-5" d="M67.41,116.16c-.38-.19-.74-.42-1.09-.67,.35,.25,.71,.47,1.09,.67Z"/>
        <path class="cls-5" d="M66.12,115.35c-.34-.26-.67-.53-.99-.84,.31,.31,.64,.58,.99,.84Z"/>
        <path class="cls-14" d="M115.09,64.87c-3.86-3.86-4.94-8.02-4.94-8.02l-45.01,44.84c-3.54,3.54-3.54,9.28,0,12.82h0c.31,.31,.64,.59,.99,.84,.07,.05,.13,.1,.2,.14,.35,.25,.71,.47,1.09,.67,0,0,0,0,0,0l49.56-49.56c-.63-.5-1.21-1.07-1.88-1.73Z"/>
        <path class="cls-15" d="M65.25,105.23c.1,.1,.23,.15,.35,.15s.26-.05,.35-.15l45.34-45.34c-.18-.33-.34-.65-.48-.94l-45.57,45.57c-.2,.2-.2,.51,0,.71Z"/>
        <path class="cls-15" d="M64.36,109.65c.1,.1,.23,.15,.35,.15s.26-.05,.35-.15l47.6-47.56c-.2-.29-.39-.57-.57-.84l-47.74,47.7c-.2,.19-.2,.51,0,.71Z"/>
        <path class="cls-15" d="M68.92,108.9c.1,.1,.23,.15,.35,.15s.26-.05,.35-.15l44.72-44.72c-.23-.25-.45-.5-.66-.75l-44.77,44.77c-.2,.2-.2,.51,0,.71Z"/>
        <path class="cls-15" d="M67.89,113.6c.1,.1,.23,.15,.35,.15s.26-.05,.35-.15l47.58-47.66c-.24-.21-.49-.44-.74-.67l-47.54,47.63c-.19,.2-.19,.51,0,.71Z"/>
        <path class="cls-15" d="M72.93,112.9c.1,.1,.22,.14,.35,.14s.26-.05,.36-.15l44.78-45.24c-.27-.18-.55-.37-.83-.58l-44.66,45.11c-.19,.2-.19,.51,0,.71Z"/>
        <path class="cls-15" d="M74.67,113.93c-.2,.2-.2,.51,0,.71,.1,.1,.23,.15,.35,.15s.26-.05,.35-.15l45.56-45.56c-.29-.13-.61-.29-.94-.47l-45.32,45.32Z"/>
      </g>
      <g>
        <path class="cls-1" d="M89.36,45.02l-42.98,42.98c-5.85,5.85-15.33,5.85-21.18,0L4.85,67.64c-6.46-6.46-6.46-16.94,0-23.41L46.71,2.37c3.16-3.16,8.29-3.16,11.45,0l17.61,17.61-1.22,1.36s1.29,4.54,4.99,8.05c4.52,4.28,7.67,4.71,7.67,4.71l1.46-1.22,.69,.69c3.16,3.16,3.16,8.29,0,11.45Z"/>
        <path class="cls-2" d="M17.83,63.95L1.98,48.1c-3.38,6.27-2.43,14.25,2.87,19.55l16.29,16.29,4.06,4.06c5.85,5.85,15.33,5.85,21.18,0l42.98-42.98c3.16-3.16,3.16-8.29,0-11.45l-.77-.75-1.31,1.38s-3.51-.61-7.79-4.94c-4.1-4.14-4.94-7.95-4.94-7.95l1.27-1.22-2.84-2.88L26.23,63.94c-2.32,2.32-6.08,2.32-8.4,0Z"/>
        <path class="cls-5" d="M29.56,66.12c-3.54,3.54-3.54,9.28,0,12.82h0c3.54,3.54,9.28,3.54,12.82,0l44.89-44.72s-3.78-.86-7.83-4.91c-3.86-3.86-4.99-7.91-4.99-7.91L29.56,66.12Z"/>
        <path class="cls-7" d="M46.38,87.99l42.98-42.98c1.14-1.14,1.86-2.54,2.18-4l-47.76,47.3c-6.96,5.84-18.58-.32-18.58-.32,5.85,5.85,15.33,5.85,21.18,0Z"/>
        <polygon class="cls-8" points="31.83 80.58 31.83 80.58 31.83 80.58 31.83 80.58"/>
        <path class="cls-8" d="M30.74,79.92c-.07-.05-.13-.1-.2-.15,.07,.05,.13,.1,.2,.15Z"/>
        <path class="cls-5" d="M31.83,80.58c-.37-.19-.74-.42-1.09-.67,.35,.25,.71,.47,1.09,.67Z"/>
        <path class="cls-5" d="M30.55,79.77c-.34-.26-.67-.53-.99-.84,.31,.31,.64,.58,.99,.84Z"/>
        <path class="cls-14" d="M79.51,29.3c-3.86-3.86-4.94-8.02-4.94-8.02L29.56,66.12c-3.54,3.54-3.54,9.28,0,12.82h0c.31,.31,.64,.59,.99,.84,.07,.05,.13,.1,.2,.15,.35,.25,.71,.47,1.09,.67,0,0,0,0,0,0L81.39,31.03c-.63-.5-1.21-1.07-1.87-1.73Z"/>
        <path class="cls-15" d="M29.68,69.65c.1,.1,.23,.15,.35,.15s.26-.05,.35-.15L75.72,24.31c-.18-.33-.34-.65-.48-.94L29.68,68.94c-.2,.2-.2,.51,0,.71Z"/>
        <path class="cls-15" d="M28.78,74.07c.1,.1,.23,.15,.35,.15s.26-.05,.35-.15L77.09,26.51c-.2-.29-.39-.57-.57-.84L28.78,73.37c-.2,.19-.2,.51,0,.71Z"/>
        <path class="cls-15" d="M33.35,73.32c.1,.1,.23,.15,.35,.15s.26-.05,.35-.15L78.78,28.6c-.23-.25-.45-.5-.66-.75l-44.77,44.77c-.2,.2-.2,.51,0,.71Z"/>
        <path class="cls-15" d="M32.31,78.03c.1,.1,.23,.15,.35,.15s.26-.05,.35-.15L80.6,30.37c-.24-.21-.49-.44-.74-.67l-47.54,47.63c-.19,.2-.19,.51,0,.71Z"/>
        <path class="cls-15" d="M37.35,77.32c.1,.1,.22,.14,.35,.14s.26-.05,.36-.15l44.78-45.24c-.27-.18-.55-.37-.83-.58l-44.66,45.11c-.19,.2-.19,.51,0,.71Z"/>
        <path class="cls-15" d="M39.09,78.36c-.2,.2-.2,.51,0,.71,.1,.1,.23,.15,.35,.15s.26-.05,.35-.15l45.56-45.56c-.29-.13-.61-.29-.94-.47l-45.32,45.32Z"/>
      </g>
    </g>
  </g>
</svg>